#!OML:ASF E:/inclinewalkrobotboard/Project1/Captureday1/Session1/subject1.ASF
:FULLY-SPECIFIED
:DEGREES
13
root 0 0 0 -2.9908270916034434 -3.7087501181725373 -2.78331689531811
lowerback 9.602792134978886 -0.25466599118511335 -0.12273180326663291
upperback -1.6258709551312274 -0.3007501699192081 1.34748706681255
thorax -7.107127532263234 -0.16599063333491348 1.5261006965708899
lowerneck -15.735481351087147 -1.5438068930463205 1.1889534669194046
upperneck 15.474547787062876 -2.0313823791771504 -1.6253909826534583
head 7.696041529035064 -0.9817638444253861 -0.9434345798159127
rclavicle -1.8696811986844717E-15 6.972620502214725E-16
rhumerus -24.62464143277892 -28.478844661207905 -78.66332003594997
rradius 39.860320874403
rwrist 23.24816177770493
rhand -20.851741654967775 8.64396077575367
rfingers 7.12501999999997
rthumb 5.5199320703689 -21.4593083602992
lclavicle -1.6377422782540402E-15 -8.759922720344694E-16
lhumerus -36.45141058557486 4.037451240881806 78.75236466755926
lradius 25.891642525935957
lwrist 3.9349557137255005
lhand -26.861562409218656 24.64949058569787
lfingers 7.125019999999965
lthumb -0.23894503273430967 54.64446140178366
rfemur -10.542598692750037 3.8442950821515023 20.137974650794444
rtibia 29.561546880358577
rfoot -6.399233867909945 -5.21518704966952
rtoes 3.0625395585341764
lfemur -15.717781147854005 2.8945426179741736 -13.70513462080663
ltibia 35.109939076137344
lfoot -8.662392616520592 -0.5440438826763949
ltoes -30.53151492315266
14
root 0 0 0 -3.062169056562121 -3.756207317478208 -2.783808061790272
lowerback 9.620249690693848 -0.21816530219094898 -0.12447634173919309
upperback -1.6679095223249227 -0.24933076813583455 1.3445521359614145
thorax -7.160700711056668 -0.14062744752793144 1.518474380246707
lowerneck -15.89599614876613 -1.5773679310234159 1.1588580174317968
upperneck 16.014119743751294 -2.100044993088284 -1.611558367817296
head 7.924477946237144 -1.0027286028622802 -0.9484736116871904
rclavicle -1.835721886833599E-15 8.599867923250371E-16
rhumerus -24.55833599470673 -28.435931666044713 -78.591685434186
rradius 39.98790436673431
rwrist 23.091784556559247
rhand -20.84285491247033 8.59689334097692
rfingers 7.125019999999971
rthumb 5.528656485540151 -21.506298748814068
lclavicle -1.4727869363186676E-15 -7.881755521606494E-16
lhumerus -36.724461126775296 4.057010523764497 78.55732272586212
lradius 26.15505833472254
lwrist 4.072251760033081
lhand -26.828863770016632 24.602095886695132
lfingers 7.125019999999965
lthumb -0.20709540522401415 54.59175158496136
rfemur -10.543306017374658 3.8442507002319513 20.13357212301522
rtibia 29.550179415471522
rfoot -6.400493706110011 -5.215788782895995
rtoes 3.0579677348231122
lfemur -15.655396342476532 2.859772036024653 -13.695508459371649
ltibia 35.059758937042844
lfoot -8.736152834113474 -0.4899183237159517
ltoes -30.629383011122044
15
root 0 0 0 -3.128212700310737 -3.7958109298882667 -2.7818006011528515
lowerback 9.634955208212752 -0.18700824036399089 -0.13029738989298145
upperback -1.7037665187940418 -0.20547283974128705 1.343903572749458
thorax -7.206155046151316 -0.11883994589536362 1.516572333925486
lowerneck -16.039779674884173 -1.6081470203846628 1.1317118077074961
upperneck 16.532066001417544 -2.163040123516703 -1.6004192763687433
head 8.14122651038956 -1.0218234487407762 -0.9538235868854326
rclavicle -1.7534315487983979E-15 9.804224210361519E-16
rhumerus -24.590417079547862 -28.378288190428645 -78.60175747999041
rradius 39.9696019454728
rwrist 22.94082078426915
rhand -20.822571002439226 8.574022842187265
rfingers 7.125019999999971
rthumb 5.548255540920317 -21.526444677553112
lclavicle -1.285709847405908E-15 -7.219280205676738E-16
lhumerus -36.91717878036671 4.013792685014656 78.41369362825677
lradius 26.45685117835427
lwrist 4.253704606579863
lhand -26.81337727333414 24.56260826378485
lfingers 7.125019999999965
lthumb -0.19260214803953435 54.54869402844646
rfemur -10.547586510994346 3.8443479402979053 20.13314833740279
rtibia 29.550275245080623
rfoot -6.400938016070668 -5.217122330859052
rtoes 3.055751233854059
lfemur -15.587295138657172 2.824891253065463 -13.697138123915169
ltibia 35.01522958542387
lfoot -8.796555454527425 -0.44916062534292633
ltoes -30.67784732020296
16
root 0 0 0 -3.1828779970382146 -3.8266805822884296 -2.779874476545433
lowerback 9.646315328245443 -0.16157795028203914 -0.1368115359348535
upperback -1.733079870579736 -0.16963520443174263 1.3444909483678764
thorax -7.242837830243475 -0.10096092347142316 1.5172461900949936
lowerneck -16.15711084616478 -1.634332402666394 1.1093812364808446
upperneck 16.97949793812765 -2.216586117135246 -1.5912269962459915
head 8.326943969249639 -1.0380387299147324 -0.9585457181825097
rclavicle -1.656901652785896E-15 1.0704670746341067E-15
rhumerus -24.665276842820898 -28.307187655507878 -78.65169332116321
rradius 39.893508306859005
rwrist 22.802543438175295
rhand -20.79983257193265 8.567781705617378
rfingers 7.125019999999971
rthumb 5.570197649025425 -21.529108661086113
lclavicle -1.0907993581595536E-15 -6.712318570162839E-16
lhumerus -37.062973400307094 3.927119323791378 78.30023779395127
lradius 26.794947616667727
lwrist 4.469972807398554
lhand -26.808063399204034 24.524766392058254
lfingers 7.125019999999965
lthumb -0.18845763154416328 54.50820628601244
rfemur -10.554330086175844 3.8455107740674705 20.13815600825682
rtibia 29.558316103458534
rfoot -6.40334399500807 -5.21980033665961
rtoes 3.0546085836961634
lfemur -15.524154209184536 2.7935455352044567 -13.701567222743439
ltibia 34.97676788132998
lfoot -8.847573437371967 -0.4159595466561927
ltoes -30.7088100181267
17
root 0 0 0 -3.2382219499304923 -3.857605355579527 -2.780416909099749
lowerback 9.660937124334058 -0.1331810838954789 -0.14309238908926136
upperback -1.7621371834414723 -0.12929455198356732 1.3469310108353378
thorax -7.280672568415372 -0.08080924779713694 1.519136455336526
lowerneck -16.27353109113407 -1.664418884584132 1.0852980309614195
upperneck 17.479193783696708 -2.2771212182237623 -1.5794903824908604
head 8.531337825646839 -1.056675981855662 -0.963335848279169
rclavicle -1.5225328721789784E-15 1.1723668964775571E-15
rhumerus -24.7800459866038 -28.113934874127434 -78.75247100352982
rradius 39.847143903961694
rwrist 22.596061480071793
rhand -20.779290638037885 8.59422661710087
rfingers 7.125019999999971
rthumb 5.5902697197348825 -21.497640611584742
lclavicle -7.639333251340392E-16 -6.505047206666767E-16
lhumerus -37.26336042923164 3.6763705025952977 78.13505601213518
lradius 27.528946177344988
lwrist 4.953443618713359
lhand -26.812711506749583 24.43823063122138
lfingers 7.125019999999965
lthumb -0.19559571011381394 54.41748615661966
rfemur -10.563583867085377 3.8499305223772797 20.152317187410382
rtibia 29.5680712620374
rfoot -6.4141988882354655 -5.22603548463749
rtoes 3.0506972737553686
lfemur -15.442756013691548 2.753845008467991 -13.6979812557292
ltibia 34.9207428514204
lfoot -8.928448208324411 -0.3609171462739931
ltoes -30.79390649600827
